# xmcd
#
# Track frame offsets: 
#        150
#        11838
#        22562
#        34763
#        47846
#        61822
#        73115
#        84347
#        99015
#        112314
#        127801
#        141422
#        159792
#        171552
#        183304
#        194869
#        207687
#        218593
#        230319
#        247108
#        257588
#        270501
#        281556
#        296123
#        308922
#        319419
#        330155
#        343060
#
# Disc length: 4752 seconds
#
# Revision: 1
# Processed by: cddbd v1.5.2PL0 Copyright (c) Steve Scherf et al.
# Submitted via: ExactAudioCopyFreeDBPlugin 1.0
#
DISCID=a1128e1c
DTITLE=Various Artist - Blues Belles With Attitude!!!
DYEAR=2009
DGENRE=Blues
TTITLE0=Cordella De Milo - Ain't Gonna Hush
TTITLE1=Jimmie Lee - Blue And Lonesome
TTITLE2=Del Graham - Mr T 99
TTITLE3=Edna Broughton - Two Years Of Torture
TTITLE4=Cordella De Milo - Lonely Girl
TTITLE5=Effie Smith - Be Bop Boogie
TTITLE6=Helen Humes - Hey, Hey, Baby
TTITLE7=Edna Broughton - Hambone Blues
TTITLE8=Mari Jones - Nightmare Blues
TTITLE9=Pearl Traylor - Gee I'm Lonesome
TTITLE10=Johnny Otis with Esther Jones - I Gotta Guy
TTITLE11=Unknown - Hey Little Boy
TTITLE12=Effie Smith - Great To Be Rich
TTITLE13=Edna Broughton - Georgia Brown Blues (Hip Shakin' Mama)
TTITLE14=Pearl Traylor - Daddy, Somebody's Got To Go
TTITLE15=Helen Humes - I Ain't In The Mood
TTITLE16=The Nic Nacs - I'm Tellin' You Baby
TTITLE17=Jimmie Lee and Artis - That's Fat Jack
TTITLE18=Unknown - 24 Hours A Day
TTITLE19=Mari Jones - Down In Texas
TTITLE20=The Nic Nacs - Found Me A Sugar Daddy
TTITLE21=Edna Broughton - Too Many Women
TTITLE22=Pearl Traylor - Play Boy Blues
TTITLE23=Johnny Otis with Esther Jones - Mean Ole Gal
TTITLE24=Mickey Champion - Good for Nothin' Man
TTITLE25=Unknown - Be My Lovey Dovey
TTITLE26=Unknown - The Pick-Up
TTITLE27=Vivianne Green - Vivianne's Boogie
EXTD=
EXTT0=
EXTT1=
EXTT2=
EXTT3=
EXTT4=
EXTT5=
EXTT6=
EXTT7=
EXTT8=
EXTT9=
EXTT10=
EXTT11=
EXTT12=
EXTT13=
EXTT14=
EXTT15=
EXTT16=
EXTT17=
EXTT18=
EXTT19=
EXTT20=
EXTT21=
EXTT22=
EXTT23=
EXTT24=
EXTT25=
EXTT26=
EXTT27=
PLAYORDER=
